<?xml version="1.0" encoding="UTF-8"?>
<svg id="_Слой_1" data-name="Слой 1" xmlns="http://www.w3.org/2000/svg" viewBox="0 0 650 167.01">
  <defs>
    <style>
      .cls-1, .cls-2 {
        fill: #0c0427;
      }

      .cls-3 {
        fill: #f4e63a;
      }

      .cls-2 {
        fill-rule: evenodd;
      }
    </style>
  </defs>
  <path class="cls-2" d="M199.08,93.63c-.66,.72-1.42,1.35-2.28,1.89-1.92,1.19-4.12,1.64-6.36,1.64-1.94,0-3.84-.34-5.62-1.11-1.67-.72-3.17-1.73-4.44-3.04-1.27-1.3-2.24-2.81-2.93-4.49-.72-1.73-1.06-3.55-1.06-5.42s.34-3.77,1.06-5.54c.69-1.68,1.65-3.2,2.91-4.51,1.26-1.31,2.74-2.32,4.4-3.04,1.75-.76,3.6-1.11,5.51-1.11,2.25,0,4.47,.43,6.44,1.55,1.01,.57,1.89,1.27,2.65,2.09v-3.04h5.06v22.55c0,2.21-.28,4.5-1.13,6.55-.7,1.69-1.68,3.25-3.04,4.5-1.27,1.17-2.73,2.02-4.37,2.55-1.62,.52-3.3,.78-5.01,.78-1.61,0-3.2-.21-4.73-.71-1.42-.46-2.75-1.13-3.95-2.03-1.18-.88-2.19-1.93-3.02-3.14-.85-1.24-1.5-2.59-1.94-4.03l-.37-1.19h5.27l.23,.57c.37,.9,.87,1.73,1.52,2.46,.61,.68,1.3,1.27,2.08,1.75,.75,.46,1.55,.81,2.4,1.05,.81,.23,1.63,.36,2.47,.36,1.55,0,3.36-.21,4.69-1.07,1.01-.66,1.89-1.5,2.46-2.57,.52-.97,.87-2.01,1.01-3.11,.04-.37,.09-.74,.12-1.12m10.6-33.04h5.24v35.96h-5.24V60.59Zm23.66,8.3c1.92,0,3.8,.34,5.57,1.09,1.67,.71,3.18,1.7,4.46,2.99,1.29,1.29,2.28,2.81,2.99,4.49,.75,1.78,1.09,3.66,1.09,5.59s-.34,3.81-1.09,5.59c-.7,1.68-1.69,3.19-2.99,4.47-1.29,1.28-2.81,2.26-4.49,2.96-1.77,.74-3.63,1.09-5.54,1.09s-3.78-.35-5.54-1.09c-1.68-.7-3.19-1.68-4.49-2.96-1.3-1.28-2.29-2.79-2.99-4.47-.75-1.78-1.09-3.66-1.09-5.59s.34-3.81,1.09-5.59c.71-1.68,1.7-3.2,2.99-4.49,1.29-1.29,2.79-2.28,4.46-2.99,1.77-.75,3.65-1.09,5.57-1.09Zm23.61,3.37c.88-.88,1.9-1.61,3.07-2.13,1.84-.83,3.78-1.23,5.8-1.23,2.2,0,4.4,.35,6.39,1.31,1.71,.82,3.24,1.92,4.49,3.36,1.18,1.36,2.06,2.9,2.62,4.6,.53,1.61,.83,3.27,.83,4.97,0,1.93-.35,3.8-1.11,5.58-.72,1.67-1.73,3.17-3.04,4.44-1.32,1.28-2.86,2.25-4.56,2.94-1.82,.73-3.75,1.06-5.71,1.06-2.09,0-4.13-.39-6.01-1.32-1.11-.55-2.09-1.26-2.95-2.11v2.83h-5.06V60.59h5.24v11.67Zm49.97,21.16c-.61,.66-1.31,1.23-2.06,1.73-.92,.61-1.94,1.07-2.99,1.42-1.27,.42-2.62,.58-3.96,.58-1.94,0-3.85-.33-5.65-1.06-1.71-.69-3.25-1.68-4.58-2.96-1.34-1.29-2.36-2.81-3.09-4.52-.78-1.83-1.11-3.77-1.11-5.75,0-1.67,.32-3.31,.88-4.88,.6-1.66,1.5-3.16,2.66-4.49,1.24-1.42,2.77-2.5,4.47-3.31,1.97-.94,4.15-1.29,6.32-1.29,.71,0,1.43,.05,2.14,.12,.96,.09,1.91,.34,2.82,.68,1.06,.39,2.04,.96,2.96,1.61,.42,.3,.82,.64,1.18,1.01v-2.82h5.06v27.06h-5.06v-3.12Zm10.34-32.83h5.24v35.96h-5.24V60.59Zm22.88,13.82h-3.92v-4.92h3.93c.04-1.13,.24-2.25,.65-3.31,.44-1.13,1.09-2.14,1.97-2.98,.9-.87,1.98-1.49,3.15-1.93,1.32-.49,2.72-.68,4.12-.68h1.61v4.92h-1.61c-.39,0-.81,.05-1.2,.09-.54,.05-1.05,.24-1.53,.5-.56,.3-1.01,.78-1.36,1.3-.4,.58-.53,1.38-.57,2.1h6.26v4.92h-6.27v22.14h-5.24v-22.14Zm14.17-13.82h5.24v7.64h-5.24v-7.64Zm0,8.9h5.24v27.06h-5.24v-27.06Zm15.58,2.18c.71-.66,1.5-1.22,2.4-1.65,1.58-.77,3.28-1.13,5.03-1.13,1.51,0,3,.25,4.43,.74,1.48,.51,2.77,1.33,3.88,2.43,1.19,1.19,2.04,2.65,2.65,4.21,.74,1.91,.98,4.03,.98,6.07v14.2h-5.24v-14.2c0-.43-.02-.86-.04-1.29-.03-.6-.13-1.2-.26-1.79-.15-.67-.38-1.33-.67-1.95-.3-.65-.71-1.22-1.21-1.73-.55-.56-1.22-.97-1.94-1.27-.92-.39-1.99-.5-2.99-.5-.83,0-1.65,.13-2.44,.36-.8,.23-1.51,.65-2.13,1.21-.72,.65-1.24,1.5-1.61,2.39-.51,1.23-.64,2.71-.64,4.03v14.75h-5.24v-27.06h5.06v2.18Zm46.93,21.78c-.87,.88-1.87,1.63-2.99,2.23-1.88,1.01-3.93,1.47-6.06,1.47-1.93,0-3.83-.34-5.62-1.06-1.72-.69-3.27-1.68-4.59-2.99-1.32-1.3-2.33-2.83-3.06-4.54-.77-1.81-1.11-3.74-1.11-5.71,0-1.65,.32-3.28,.88-4.83,.6-1.67,1.5-3.17,2.66-4.51,1.24-1.43,2.77-2.53,4.47-3.34,1.96-.93,4.12-1.29,6.27-1.29,.69,0,1.39,.05,2.07,.12,.95,.09,1.88,.34,2.77,.68,1.04,.4,2.02,.96,2.93,1.61,.42,.3,.81,.64,1.18,1.01v-11.72h5.24v35.96h-5.06v-3.1Zm25.62-8.29c.14,.76,.37,1.49,.71,2.19,.47,.96,1.08,1.82,1.86,2.55,.78,.74,1.68,1.3,2.67,1.71,1.06,.44,2.18,.62,3.32,.62,1.74,0,3.35-.42,4.79-1.39,1.43-.96,2.47-2.23,3.18-3.79l.24-.54h5.45l-.46,1.23c-1.03,2.78-2.69,5.14-5.1,6.88-2.41,1.74-5.16,2.53-8.12,2.53-1.91,0-3.77-.34-5.54-1.06-1.69-.69-3.2-1.67-4.48-2.97-1.27-1.29-2.25-2.79-2.96-4.46-.76-1.79-1.09-3.68-1.09-5.61,0-1.72,.32-3.4,.91-5.02,.61-1.68,1.51-3.19,2.69-4.53,1.23-1.4,2.72-2.49,4.39-3.31,1.9-.93,3.98-1.29,6.08-1.29,2.24,0,4.51,.37,6.5,1.45,1.7,.92,3.17,2.14,4.31,3.7,1.1,1.5,1.89,3.17,2.36,4.97,.45,1.71,.7,3.47,.7,5.24v.92h-22.43Zm32.64-2.34l-9.27-13.33h6.24l6.21,9.03,6.21-9.03h6.25l-9.32,13.33,9.28,13.73h-6.23l-6.2-9.36-6.2,9.36h-6.22l9.23-13.73Zm24.22-10.47c.37-.36,.77-.69,1.19-.99,.91-.64,1.88-1.19,2.92-1.58,.88-.33,1.8-.59,2.74-.72,.72-.1,1.47-.17,2.2-.17,2.14,0,4.27,.35,6.22,1.26,1.71,.8,3.24,1.89,4.5,3.31,1.19,1.35,2.1,2.89,2.71,4.58,.59,1.64,.91,3.34,.91,5.08,0,1.92-.34,3.8-1.09,5.57-.71,1.69-1.73,3.18-3.04,4.45-1.33,1.28-2.87,2.25-4.58,2.93-1.82,.73-3.75,1.06-5.71,1.06-1.44,0-2.93-.17-4.29-.68-1.07-.4-2.12-.92-3.04-1.6-.51-.38-1.01-.8-1.45-1.27v11.8h-5.24v-35.91h5.06v2.86Zm32.75-.98c.5-.5,1.06-.93,1.69-1.29,1.47-.85,3.07-1.2,4.76-1.14l.88,.03v5.14l-.84,.07c-.76,.06-1.52,.23-2.24,.48-.74,.26-1.41,.65-2.01,1.16-.63,.55-1.12,1.22-1.48,1.97-.44,.89-.58,1.91-.58,2.89v15.86h-5.24v-27.06h5.06v1.88Zm13.23,13.79c.14,.76,.37,1.49,.71,2.19,.47,.96,1.08,1.82,1.86,2.55,.78,.74,1.68,1.3,2.67,1.71,1.06,.44,2.18,.62,3.32,.62,1.74,0,3.35-.42,4.79-1.39,1.43-.96,2.47-2.23,3.18-3.79l.24-.54h5.45l-.46,1.23c-1.03,2.78-2.69,5.14-5.1,6.88-2.41,1.74-5.16,2.53-8.12,2.53-1.91,0-3.77-.34-5.54-1.06-1.69-.69-3.2-1.67-4.48-2.97-1.27-1.29-2.25-2.79-2.96-4.46-.76-1.79-1.09-3.68-1.09-5.61,0-1.72,.32-3.4,.91-5.02,.61-1.68,1.51-3.19,2.69-4.53,1.23-1.4,2.72-2.49,4.39-3.31,1.9-.93,3.98-1.29,6.08-1.29,2.24,0,4.51,.37,6.5,1.45,1.7,.92,3.17,2.14,4.31,3.7,1.1,1.5,1.89,3.17,2.36,4.97,.45,1.71,.7,3.47,.7,5.24v.92h-22.43Zm30.86,3.14c-.05,.51,0,1.02,.15,1.51,.14,.46,.36,.87,.68,1.23,.33,.37,.74,.65,1.19,.87,.51,.24,1.08,.33,1.64,.33,.53,0,1.08-.07,1.57-.29,.41-.18,.78-.42,1.08-.75,.29-.31,.5-.68,.64-1.08,.15-.43,.23-.88,.23-1.34,0-.5-.07-1.05-.32-1.49-.23-.41-.52-.75-.89-1.03-.41-.32-.87-.56-1.35-.75-.57-.23-1.15-.45-1.71-.65-.73-.24-1.46-.52-2.17-.8-.86-.35-1.66-.82-2.38-1.41-.77-.63-1.4-1.4-1.88-2.27-.58-1.05-.78-2.26-.78-3.44,0-1.07,.18-2.11,.57-3.1,.37-.95,.91-1.81,1.62-2.56,.73-.77,1.62-1.34,2.6-1.74,1.08-.44,2.24-.62,3.41-.62,1.1,0,2.19,.18,3.21,.6,.94,.39,1.79,.93,2.51,1.65,.72,.72,1.25,1.56,1.61,2.51,.37,.97,.54,1.99,.54,3.02v.92h-5.27l.03-.94c.02-.78-.16-1.51-.72-2.07-.55-.55-1.23-.77-2.01-.77s-1.57,.18-2.12,.77c-.54,.58-.75,1.27-.75,2.05,0,.47,.07,.97,.31,1.38,.23,.39,.53,.71,.9,.97,.43,.31,.9,.55,1.4,.75,.56,.22,1.13,.42,1.7,.6,.79,.26,1.56,.55,2.33,.85,.86,.34,1.66,.8,2.37,1.39,.75,.62,1.34,1.38,1.78,2.25,.53,1.04,.7,2.24,.7,3.39s-.18,2.4-.61,3.53c-.4,1.06-1,2.02-1.79,2.84-.81,.84-1.78,1.47-2.86,1.9-1.2,.48-2.49,.66-3.78,.66s-2.62-.2-3.82-.75c-1.04-.48-1.97-1.14-2.71-2.01-.72-.85-1.25-1.82-1.58-2.88-.34-1.07-.5-2.18-.5-3.3v-.92h5.33l-.1,1Zm21.97,0c-.05,.51,0,1.02,.15,1.51,.14,.46,.36,.87,.68,1.23,.33,.37,.74,.65,1.19,.87,.51,.24,1.08,.33,1.64,.33,.53,0,1.08-.07,1.57-.29,.41-.18,.78-.42,1.08-.75,.29-.31,.5-.68,.64-1.08,.15-.43,.23-.88,.23-1.34,0-.5-.07-1.05-.32-1.49-.23-.41-.52-.75-.89-1.03-.41-.32-.87-.56-1.35-.75-.57-.23-1.15-.45-1.71-.65-.73-.24-1.46-.52-2.17-.8-.86-.35-1.66-.82-2.38-1.41-.77-.63-1.4-1.4-1.88-2.27-.58-1.05-.78-2.26-.78-3.44,0-1.07,.18-2.11,.57-3.1,.37-.95,.91-1.81,1.62-2.56,.73-.77,1.62-1.34,2.6-1.74,1.08-.44,2.24-.62,3.41-.62,1.1,0,2.19,.18,3.21,.6,.94,.39,1.79,.93,2.51,1.65,.72,.72,1.25,1.56,1.61,2.51,.37,.97,.54,1.99,.54,3.02v.92h-5.27l.03-.94c.02-.78-.16-1.51-.72-2.07-.55-.55-1.23-.77-2.01-.77s-1.57,.18-2.12,.77c-.54,.58-.75,1.27-.75,2.05,0,.47,.07,.97,.31,1.38,.23,.39,.53,.71,.9,.97,.43,.31,.9,.55,1.4,.75,.56,.22,1.13,.42,1.7,.6,.79,.26,1.56,.55,2.33,.85,.86,.34,1.66,.8,2.37,1.39,.75,.62,1.34,1.38,1.78,2.25,.53,1.04,.7,2.24,.7,3.39s-.18,2.4-.61,3.53c-.41,1.06-1,2.02-1.79,2.84-.81,.84-1.78,1.47-2.86,1.9-1.2,.48-2.49,.66-3.78,.66s-2.62-.2-3.82-.75c-1.04-.48-1.97-1.14-2.71-2.01-.72-.85-1.25-1.82-1.58-2.88-.34-1.07-.5-2.18-.5-3.3v-.92h5.33l-.1,1Zm-407.81-14.48c-1.21,0-2.38,.22-3.48,.71-1.04,.46-1.97,1.09-2.75,1.91-.79,.84-1.38,1.81-1.79,2.88-.45,1.15-.65,2.36-.65,3.59s.21,2.46,.65,3.62c.42,1.1,1.02,2.09,1.82,2.95,.8,.86,1.74,1.52,2.8,2.01,1.13,.52,2.34,.75,3.58,.75s2.43-.22,3.56-.71c1.06-.46,2-1.11,2.79-1.95,.8-.86,1.41-1.85,1.85-2.94,.46-1.15,.67-2.35,.67-3.58s-.21-2.52-.71-3.7c-.46-1.09-1.11-2.08-1.95-2.92-.83-.83-1.8-1.47-2.89-1.92-1.12-.47-2.29-.69-3.5-.69Zm43.04,0c-1.23,0-2.43,.22-3.55,.71-1.06,.46-2,1.1-2.79,1.94-.81,.85-1.41,1.84-1.84,2.93-.46,1.17-.67,2.4-.67,3.65s.2,2.5,.67,3.67c.43,1.07,1.03,2.05,1.84,2.89,.8,.83,1.74,1.46,2.8,1.92,1.13,.49,2.33,.71,3.55,.71s2.43-.22,3.55-.71c1.05-.46,2-1.09,2.8-1.92,.81-.83,1.41-1.81,1.84-2.89,.47-1.17,.67-2.41,.67-3.67s-.21-2.48-.67-3.65c-.43-1.09-1.03-2.08-1.84-2.93-.79-.84-1.74-1.48-2.79-1.94-1.13-.49-2.33-.71-3.55-.71Zm32.48,0c-1.24,0-2.44,.23-3.57,.73-1.08,.48-2.05,1.14-2.87,1.99-.83,.86-1.46,1.86-1.91,2.96-.48,1.18-.69,2.42-.69,3.69s.22,2.41,.69,3.54c.45,1.08,1.08,2.04,1.9,2.86,.82,.82,1.79,1.46,2.85,1.93,1.11,.49,2.29,.71,3.51,.71s2.41-.22,3.54-.69c1.09-.46,2.07-1.09,2.92-1.91,.85-.82,1.51-1.79,1.99-2.87,.51-1.15,.73-2.37,.73-3.62s-.21-2.54-.69-3.74c-.45-1.1-1.08-2.09-1.92-2.93-.84-.84-1.81-1.48-2.9-1.95-1.14-.49-2.34-.71-3.58-.71Zm32.01,0c-1.22,0-2.41,.23-3.54,.71-1.09,.47-2.06,1.11-2.9,1.95s-1.49,1.84-1.95,2.94c-.5,1.19-.71,2.44-.71,3.73s.23,2.47,.75,3.61c.49,1.08,1.16,2.05,2.02,2.88,.85,.82,1.83,1.46,2.92,1.91,1.12,.47,2.29,.69,3.5,.69s2.39-.22,3.51-.71c1.08-.47,2.05-1.11,2.88-1.94,.83-.82,1.47-1.78,1.92-2.86,.47-1.13,.69-2.32,.69-3.54s-.22-2.5-.69-3.67c-.45-1.11-1.07-2.12-1.91-2.98-.83-.86-1.8-1.51-2.89-1.99-1.14-.5-2.35-.73-3.6-.73Zm109.85,0c-1.22,0-2.39,.22-3.51,.71-1.08,.47-2.04,1.12-2.88,1.95-.84,.84-1.49,1.84-1.95,2.94-.5,1.19-.71,2.44-.71,3.73s.22,2.49,.73,3.65c.48,1.09,1.13,2.06,1.99,2.89,.85,.82,1.82,1.44,2.91,1.89,1.12,.45,2.3,.67,3.51,.67s2.41-.22,3.54-.69c1.08-.45,2.06-1.08,2.89-1.91,.83-.82,1.47-1.78,1.92-2.86,.48-1.14,.69-2.35,.69-3.59s-.22-2.53-.69-3.72c-.45-1.11-1.07-2.12-1.91-2.98-.82-.85-1.79-1.5-2.88-1.96-1.16-.49-2.39-.71-3.65-.71Zm51.43,6.43c-.21-.73-.5-1.43-.88-2.09-.51-.88-1.14-1.68-1.92-2.34-.74-.63-1.57-1.13-2.48-1.48-.91-.35-1.86-.52-2.83-.52-1.06,0-2.09,.18-3.08,.56-.96,.37-1.84,.88-2.62,1.55-.78,.67-1.42,1.46-1.92,2.36-.35,.62-.62,1.28-.82,1.96h16.55Zm49.24-6.43c-1.26,0-2.5,.22-3.66,.73-1.08,.48-2.03,1.14-2.84,2-.81,.87-1.43,1.88-1.87,2.99-.46,1.17-.67,2.4-.67,3.65s.21,2.42,.67,3.55c.44,1.08,1.05,2.05,1.86,2.89,.8,.83,1.75,1.46,2.81,1.91,1.15,.49,2.37,.69,3.61,.69s2.43-.22,3.57-.69c1.1-.45,2.09-1.09,2.94-1.93,.85-.83,1.5-1.8,1.97-2.89,.5-1.15,.71-2.38,.71-3.63s-.23-2.48-.71-3.64c-.46-1.1-1.1-2.11-1.94-2.97-.82-.85-1.78-1.5-2.86-1.96-1.14-.49-2.34-.71-3.58-.71Zm53.6,6.43c-.21-.73-.5-1.43-.88-2.09-.51-.88-1.14-1.68-1.92-2.34-.74-.63-1.57-1.13-2.48-1.48-.91-.35-1.86-.52-2.83-.52-1.06,0-2.09,.18-3.08,.56-.96,.37-1.84,.88-2.62,1.55-.78,.67-1.42,1.46-1.92,2.36-.35,.62-.62,1.28-.82,1.96h16.55Z"/>
  <polygon class="cls-2" points="136.68 122.49 117.05 142.12 107.57 151.6 98.09 142.12 107.57 132.64 127.2 113.01 136.68 122.49"/>
  <rect class="cls-1" x="110.98" y="71.95" width="13.41" height="40.33" transform="translate(-30.67 110.19) rotate(-45)"/>
  <polygon class="cls-2" points="58.43 83.5 94.62 119.68 85.13 129.16 39.47 83.5 107.57 15.4 153.23 61.07 143.75 70.55 107.57 34.37 58.43 83.5"/>
  <rect class="cls-3" x="130.93" y="105.36" width="13.41" height="13.41" transform="translate(-38.93 130.14) rotate(-45)"/>
</svg>