<?xml version="1.0" encoding="UTF-8"?>
<svg id="_Слой_1" data-name="Слой 1" xmlns="http://www.w3.org/2000/svg" viewBox="0 0 650 321.67">
  <defs>
    <style>
      .cls-1, .cls-2 {
        fill: #0c0427;
      }

      .cls-3 {
        fill: #f4e63a;
      }

      .cls-2 {
        fill-rule: evenodd;
      }
    </style>
  </defs>
  <path class="cls-2" d="M57.8,293.42c-.9,.99-1.95,1.86-3.14,2.59-2.64,1.64-5.67,2.25-8.75,2.25-2.67,0-5.27-.47-7.73-1.53-2.3-1-4.36-2.38-6.11-4.18-1.74-1.79-3.08-3.86-4.03-6.17-.98-2.38-1.46-4.88-1.46-7.46s.46-5.18,1.46-7.61c.95-2.31,2.27-4.4,4-6.2,1.73-1.79,3.76-3.18,6.05-4.18,2.4-1.05,4.95-1.53,7.57-1.53,3.1,0,6.14,.6,8.86,2.13,1.39,.78,2.6,1.75,3.64,2.88v-4.18h6.95v30.99c0,3.04-.38,6.19-1.55,9.01-.97,2.33-2.32,4.47-4.18,6.18-1.74,1.61-3.76,2.78-6.01,3.51-2.23,.72-4.54,1.08-6.89,1.08-2.21,0-4.4-.3-6.51-.98-1.95-.64-3.79-1.56-5.44-2.79-1.62-1.21-3-2.66-4.15-4.32-1.17-1.7-2.06-3.57-2.67-5.54l-.51-1.63h7.24l.32,.78c.51,1.24,1.19,2.38,2.09,3.38,.84,.93,1.79,1.75,2.86,2.4,1.03,.63,2.14,1.12,3.3,1.45,1.11,.31,2.25,.49,3.4,.49,2.12,0,4.62-.28,6.44-1.47,1.39-.91,2.6-2.06,3.38-3.53,.72-1.34,1.2-2.77,1.38-4.28,.06-.5,.12-1.02,.16-1.53m14.58-45.42h7.21v49.43h-7.21v-49.43Zm32.52,11.41c2.64,0,5.22,.46,7.65,1.49,2.3,.97,4.37,2.34,6.14,4.11,1.78,1.78,3.14,3.86,4.11,6.17,1.03,2.45,1.49,5.03,1.49,7.68s-.47,5.24-1.49,7.68c-.97,2.31-2.33,4.39-4.11,6.15-1.78,1.76-3.86,3.1-6.17,4.07-2.43,1.02-4.99,1.49-7.62,1.49s-5.19-.48-7.62-1.49c-2.3-.97-4.39-2.31-6.17-4.07-1.78-1.76-3.14-3.84-4.11-6.15-1.03-2.45-1.49-5.03-1.49-7.68s.47-5.24,1.49-7.68c.97-2.31,2.33-4.4,4.11-6.17,1.77-1.77,3.84-3.13,6.14-4.11,2.44-1.03,5.02-1.49,7.65-1.49Zm32.46,4.63c1.21-1.21,2.61-2.21,4.22-2.93,2.53-1.14,5.2-1.7,7.97-1.7,3.02,0,6.05,.49,8.79,1.8,2.35,1.13,4.46,2.65,6.17,4.62,1.62,1.87,2.83,3.98,3.6,6.33,.73,2.21,1.14,4.5,1.14,6.83,0,2.65-.48,5.23-1.53,7.66-1,2.3-2.38,4.36-4.18,6.11-1.81,1.76-3.93,3.1-6.27,4.04-2.51,1.01-5.16,1.45-7.86,1.45-2.87,0-5.68-.53-8.26-1.81-1.53-.76-2.87-1.74-4.05-2.91v3.89h-6.95v-49.43h7.21v16.04Zm68.69,29.09c-.84,.9-1.8,1.69-2.83,2.37-1.26,.84-2.67,1.47-4.1,1.95-1.74,.58-3.61,.79-5.44,.79-2.67,0-5.29-.45-7.76-1.46-2.35-.95-4.47-2.3-6.3-4.06-1.84-1.77-3.25-3.87-4.25-6.22-1.07-2.51-1.53-5.19-1.53-7.91,0-2.3,.44-4.54,1.22-6.7,.82-2.28,2.06-4.35,3.66-6.17,1.71-1.95,3.81-3.44,6.14-4.55,2.71-1.29,5.71-1.77,8.69-1.77,.98,0,1.97,.07,2.94,.16,1.33,.13,2.63,.47,3.87,.93,1.45,.54,2.81,1.32,4.07,2.22,.58,.42,1.12,.88,1.62,1.39v-3.87h6.95v37.2h-6.95v-4.3Zm14.21-45.14h7.21v49.43h-7.21v-49.43Zm31.46,19h-5.39v-6.76h5.4c.05-1.56,.33-3.09,.9-4.55,.6-1.56,1.5-2.94,2.71-4.1,1.24-1.19,2.72-2.05,4.33-2.65,1.81-.67,3.74-.93,5.67-.93h2.21v6.76h-2.21c-.53,0-1.12,.07-1.65,.12-.74,.07-1.45,.33-2.1,.68-.77,.41-1.38,1.07-1.87,1.79-.54,.8-.74,1.89-.78,2.88h8.61v6.76h-8.62v30.43h-7.21v-30.43Zm19.47-19h7.21v10.5h-7.21v-10.5Zm0,12.24h7.21v37.2h-7.21v-37.2Zm21.42,3c.97-.91,2.07-1.68,3.3-2.27,2.18-1.05,4.5-1.55,6.92-1.55,2.08,0,4.12,.34,6.08,1.02,2.03,.7,3.81,1.82,5.33,3.34,1.64,1.64,2.81,3.64,3.64,5.79,1.02,2.63,1.35,5.55,1.35,8.35v19.52h-7.21v-19.52c0-.59-.03-1.18-.06-1.77-.04-.83-.18-1.65-.35-2.46-.2-.93-.52-1.82-.92-2.68-.42-.89-.98-1.68-1.66-2.38-.75-.77-1.68-1.33-2.66-1.75-1.27-.54-2.74-.69-4.11-.69-1.14,0-2.27,.17-3.36,.49-1.11,.32-2.08,.89-2.93,1.66-1,.89-1.7,2.07-2.22,3.29-.71,1.68-.89,3.73-.89,5.54v20.28h-7.21v-37.2h6.95v3Zm64.51,29.94c-1.2,1.21-2.57,2.24-4.11,3.06-2.59,1.39-5.4,2.02-8.33,2.02-2.66,0-5.26-.46-7.73-1.45-2.37-.95-4.5-2.31-6.31-4.11-1.81-1.79-3.21-3.89-4.21-6.24-1.06-2.49-1.53-5.14-1.53-7.85,0-2.28,.45-4.5,1.22-6.64,.82-2.29,2.06-4.36,3.66-6.2,1.71-1.97,3.8-3.47,6.15-4.59,2.69-1.29,5.66-1.77,8.63-1.77,.95,0,1.91,.07,2.85,.16,1.31,.13,2.59,.47,3.81,.93,1.44,.54,2.78,1.32,4.03,2.21,.58,.42,1.12,.88,1.62,1.39v-16.11h7.21v49.43h-6.95v-4.26Zm35.22-11.4c.19,1.04,.51,2.05,.98,3.01,.64,1.32,1.49,2.5,2.55,3.5,1.07,1.01,2.31,1.79,3.67,2.35,1.45,.6,2.99,.86,4.56,.86,2.39,0,4.61-.58,6.59-1.91,1.96-1.31,3.4-3.07,4.37-5.22l.34-.74h7.5l-.63,1.69c-1.42,3.82-3.69,7.06-7,9.46-3.32,2.4-7.1,3.47-11.17,3.47-2.62,0-5.18-.46-7.61-1.46-2.32-.95-4.4-2.3-6.16-4.08-1.75-1.77-3.1-3.84-4.07-6.13-1.04-2.45-1.49-5.06-1.49-7.72,0-2.36,.44-4.68,1.25-6.9,.84-2.31,2.07-4.39,3.69-6.23,1.69-1.92,3.74-3.42,6.03-4.55,2.61-1.28,5.47-1.78,8.35-1.78,3.08,0,6.21,.51,8.94,1.99,2.33,1.26,4.35,2.94,5.93,5.08,1.52,2.06,2.6,4.35,3.25,6.83,.61,2.35,.96,4.76,.96,7.2v1.26h-30.84Zm44.87-3.21l-12.74-18.33h8.58l8.53,12.41,8.53-12.41h8.59l-12.81,18.33,12.76,18.87h-8.56l-8.52-12.86-8.52,12.86h-8.55l12.69-18.87Zm33.3-14.4c.51-.49,1.05-.95,1.63-1.35,1.25-.87,2.59-1.63,4.02-2.17,1.21-.46,2.48-.82,3.77-.99,1-.13,2.02-.23,3.02-.23,2.94,0,5.87,.48,8.55,1.74,2.36,1.1,4.46,2.6,6.18,4.56,1.64,1.86,2.89,3.97,3.73,6.3,.81,2.25,1.25,4.59,1.25,6.99,0,2.64-.46,5.22-1.49,7.65-.98,2.32-2.37,4.38-4.19,6.12-1.82,1.75-3.95,3.09-6.3,4.03-2.51,1.01-5.16,1.45-7.86,1.45-1.98,0-4.03-.24-5.89-.94-1.47-.55-2.91-1.26-4.17-2.2-.7-.52-1.38-1.1-1.99-1.74v16.22h-7.21v-49.37h6.95v3.93Zm45.02-1.35c.69-.68,1.46-1.28,2.33-1.78,2.01-1.17,4.23-1.65,6.54-1.56l1.21,.05v7.07l-1.16,.09c-1.05,.08-2.08,.32-3.08,.66-1.02,.35-1.94,.89-2.76,1.6-.87,.75-1.53,1.68-2.04,2.71-.6,1.22-.79,2.63-.79,3.98v21.8h-7.21v-37.2h6.95v2.58Zm18.18,18.96c.19,1.04,.51,2.05,.98,3.01,.64,1.32,1.49,2.5,2.55,3.5,1.07,1.01,2.31,1.79,3.67,2.35,1.46,.6,2.99,.86,4.56,.86,2.39,0,4.6-.58,6.59-1.91,1.96-1.31,3.4-3.07,4.37-5.22l.34-.74h7.5l-.63,1.69c-1.42,3.82-3.69,7.06-7,9.46-3.31,2.4-7.1,3.47-11.17,3.47-2.62,0-5.18-.46-7.61-1.46-2.32-.95-4.4-2.3-6.16-4.08-1.75-1.77-3.1-3.84-4.07-6.13-1.04-2.45-1.49-5.06-1.49-7.72,0-2.36,.44-4.68,1.25-6.9,.84-2.31,2.07-4.39,3.69-6.23,1.69-1.92,3.74-3.42,6.03-4.55,2.61-1.28,5.47-1.78,8.35-1.78,3.08,0,6.21,.51,8.94,1.99,2.33,1.26,4.35,2.94,5.93,5.08,1.52,2.06,2.6,4.35,3.25,6.83,.61,2.35,.96,4.76,.96,7.2v1.26h-30.84Zm42.43,4.31c-.07,.7,0,1.4,.2,2.08,.19,.63,.5,1.2,.94,1.69,.46,.51,1.01,.9,1.63,1.19,.7,.33,1.48,.45,2.25,.45,.73,0,1.48-.1,2.15-.4,.56-.25,1.07-.58,1.49-1.04,.4-.43,.69-.93,.88-1.49,.2-.6,.31-1.21,.31-1.84,0-.69-.1-1.44-.44-2.05-.31-.56-.71-1.03-1.22-1.42-.56-.43-1.19-.77-1.85-1.03-.79-.31-1.58-.61-2.35-.9-1.01-.34-2-.71-2.99-1.1-1.19-.47-2.28-1.13-3.28-1.94-1.06-.87-1.92-1.93-2.59-3.12-.8-1.44-1.08-3.1-1.08-4.73,0-1.46,.25-2.9,.78-4.26,.51-1.31,1.25-2.5,2.23-3.51,1.01-1.06,2.23-1.84,3.58-2.39,1.49-.61,3.09-.85,4.69-.85,1.51,0,3.01,.25,4.41,.82,1.29,.53,2.46,1.28,3.46,2.27,.99,.99,1.72,2.15,2.22,3.45,.51,1.33,.75,2.73,.75,4.16v1.26h-7.24l.04-1.29c.03-1.07-.22-2.08-1-2.85-.76-.76-1.69-1.06-2.76-1.06s-2.15,.24-2.92,1.06c-.74,.79-1.02,1.75-1.02,2.82,0,.64,.09,1.34,.43,1.89,.32,.53,.73,.97,1.23,1.33,.6,.42,1.24,.76,1.92,1.03,.77,.3,1.55,.57,2.34,.83,1.08,.35,2.15,.75,3.21,1.17,1.18,.46,2.28,1.1,3.26,1.92,1.03,.85,1.84,1.9,2.44,3.09,.73,1.43,.96,3.07,.96,4.66s-.25,3.3-.84,4.85c-.56,1.46-1.37,2.78-2.45,3.91-1.11,1.16-2.44,2.02-3.93,2.61-1.65,.66-3.42,.91-5.19,.91s-3.61-.28-5.25-1.03c-1.43-.66-2.7-1.57-3.73-2.77-.99-1.16-1.71-2.5-2.18-3.96-.47-1.47-.69-2.99-.69-4.53v-1.26h7.33l-.13,1.38Zm30.21,0c-.07,.7,0,1.4,.2,2.08,.19,.63,.5,1.2,.94,1.69,.46,.51,1.01,.9,1.63,1.19,.7,.33,1.48,.45,2.25,.45,.73,0,1.48-.1,2.15-.4,.56-.25,1.07-.58,1.49-1.04,.4-.43,.69-.93,.88-1.49,.2-.6,.31-1.21,.31-1.84,0-.69-.1-1.44-.44-2.05-.31-.56-.71-1.03-1.22-1.42-.56-.43-1.19-.77-1.85-1.03-.79-.31-1.58-.61-2.35-.9-1.01-.34-2-.71-2.99-1.1-1.19-.47-2.28-1.13-3.28-1.94-1.06-.87-1.92-1.93-2.59-3.12-.8-1.44-1.08-3.1-1.08-4.73,0-1.46,.25-2.9,.78-4.26,.51-1.31,1.25-2.5,2.23-3.51,1.01-1.06,2.23-1.84,3.58-2.39,1.49-.61,3.09-.85,4.69-.85,1.51,0,3.01,.25,4.41,.82,1.29,.53,2.46,1.28,3.46,2.27,.98,.99,1.72,2.15,2.22,3.45,.51,1.33,.75,2.73,.75,4.16v1.26h-7.24l.03-1.29c.03-1.07-.22-2.08-1-2.85-.76-.76-1.69-1.06-2.76-1.06s-2.15,.24-2.92,1.06c-.74,.79-1.02,1.75-1.02,2.82,0,.64,.09,1.34,.43,1.89,.32,.53,.73,.97,1.23,1.33,.59,.42,1.24,.76,1.92,1.03,.77,.3,1.55,.57,2.34,.83,1.08,.35,2.15,.75,3.21,1.17,1.18,.46,2.28,1.1,3.26,1.92,1.03,.85,1.84,1.9,2.44,3.09,.73,1.43,.96,3.07,.96,4.66s-.25,3.3-.84,4.85c-.56,1.46-1.37,2.78-2.45,3.91-1.11,1.16-2.44,2.02-3.93,2.61-1.65,.66-3.42,.91-5.19,.91s-3.61-.28-5.25-1.03c-1.43-.66-2.7-1.57-3.73-2.77-.99-1.16-1.71-2.5-2.18-3.96-.47-1.47-.69-2.99-.69-4.53v-1.26h7.33l-.13,1.38ZM45.73,266.18c-1.66,0-3.27,.3-4.79,.97-1.43,.63-2.7,1.5-3.78,2.63-1.09,1.15-1.9,2.49-2.47,3.96-.61,1.58-.9,3.24-.9,4.93s.29,3.38,.9,4.97c.58,1.51,1.4,2.88,2.5,4.06,1.1,1.18,2.4,2.09,3.86,2.76,1.56,.72,3.22,1.03,4.93,1.03s3.33-.3,4.89-.97c1.46-.64,2.75-1.52,3.83-2.69,1.1-1.18,1.94-2.55,2.54-4.05,.63-1.58,.92-3.23,.92-4.92s-.29-3.47-.98-5.09c-.64-1.5-1.52-2.85-2.68-4.01-1.14-1.14-2.48-2.02-3.97-2.65-1.54-.64-3.14-.95-4.81-.95Zm59.17,0c-1.69,0-3.33,.3-4.89,.97-1.45,.63-2.75,1.51-3.84,2.66-1.11,1.17-1.94,2.54-2.53,4.03-.64,1.61-.93,3.3-.93,5.02s.28,3.44,.92,5.05c.59,1.48,1.42,2.82,2.53,3.97,1.1,1.14,2.4,2.01,3.85,2.64,1.55,.68,3.2,.97,4.89,.97s3.33-.3,4.89-.97c1.45-.63,2.75-1.5,3.85-2.64,1.11-1.15,1.94-2.49,2.53-3.97,.65-1.61,.92-3.32,.92-5.05s-.29-3.41-.93-5.02c-.59-1.5-1.42-2.86-2.53-4.03-1.09-1.15-2.39-2.03-3.84-2.66-1.55-.68-3.2-.97-4.89-.97Zm44.64,0c-1.7,0-3.35,.31-4.91,1-1.49,.66-2.82,1.57-3.95,2.74-1.14,1.18-2.01,2.55-2.62,4.07-.66,1.62-.95,3.33-.95,5.07s.3,3.32,.95,4.87c.62,1.48,1.48,2.81,2.61,3.94,1.13,1.13,2.45,2.01,3.92,2.65,1.53,.67,3.15,.97,4.82,.97s3.32-.3,4.87-.95c1.5-.63,2.85-1.5,4.02-2.63,1.17-1.13,2.08-2.46,2.74-3.95,.7-1.58,1-3.25,1-4.97s-.29-3.5-.95-5.14c-.62-1.51-1.49-2.87-2.64-4.02-1.15-1.15-2.49-2.04-3.98-2.68-1.57-.67-3.22-.98-4.92-.98Zm44.01,0c-1.68,0-3.31,.31-4.86,.98-1.49,.64-2.83,1.53-3.98,2.68-1.16,1.16-2.04,2.52-2.68,4.04-.68,1.63-.98,3.36-.98,5.12s.31,3.39,1.03,4.96c.68,1.49,1.6,2.82,2.77,3.96,1.17,1.13,2.52,2,4.02,2.63,1.54,.64,3.15,.95,4.81,.95s3.29-.3,4.82-.97c1.48-.65,2.81-1.53,3.96-2.66,1.15-1.13,2.02-2.45,2.64-3.93,.65-1.55,.95-3.19,.95-4.87s-.31-3.43-.96-5.05c-.61-1.53-1.48-2.91-2.62-4.1-1.14-1.18-2.48-2.08-3.97-2.73-1.57-.69-3.23-1-4.95-1Zm151.01,0c-1.67,0-3.29,.31-4.82,.97-1.49,.65-2.81,1.54-3.96,2.68-1.16,1.16-2.04,2.52-2.68,4.04-.68,1.63-.98,3.36-.98,5.12s.31,3.42,1,5.01c.66,1.5,1.56,2.84,2.73,3.97,1.16,1.12,2.5,1.98,4,2.59,1.54,.62,3.16,.92,4.82,.92s3.32-.3,4.87-.95c1.49-.62,2.83-1.49,3.98-2.62,1.15-1.13,2.02-2.45,2.64-3.93,.66-1.57,.95-3.23,.95-4.94s-.3-3.48-.96-5.11c-.61-1.53-1.48-2.91-2.62-4.1-1.13-1.17-2.47-2.06-3.96-2.7-1.6-.68-3.29-.98-5.02-.98Zm70.69,8.83c-.29-1-.69-1.96-1.21-2.87-.7-1.22-1.57-2.31-2.64-3.22-1.02-.87-2.16-1.55-3.41-2.03-1.25-.48-2.55-.71-3.89-.71-1.46,0-2.88,.25-4.24,.77-1.32,.51-2.53,1.21-3.6,2.13-1.07,.92-1.95,2.01-2.64,3.24-.48,.86-.85,1.76-1.13,2.69h22.75Zm67.69-8.83c-1.74,0-3.44,.3-5.04,1-1.48,.66-2.79,1.57-3.9,2.75-1.12,1.2-1.97,2.58-2.57,4.11-.63,1.61-.93,3.29-.93,5.02s.29,3.32,.92,4.89c.6,1.48,1.45,2.82,2.56,3.97,1.1,1.14,2.4,2.01,3.87,2.63,1.58,.67,3.26,.95,4.96,.95s3.34-.3,4.91-.95c1.51-.62,2.87-1.5,4.04-2.65,1.16-1.14,2.06-2.48,2.71-3.98,.68-1.58,.98-3.27,.98-4.99s-.31-3.4-.98-5c-.64-1.52-1.52-2.9-2.66-4.08-1.13-1.16-2.45-2.06-3.94-2.7-1.57-.67-3.22-.98-4.92-.98Zm73.68,8.83c-.29-1-.69-1.96-1.21-2.87-.7-1.22-1.57-2.31-2.64-3.22-1.02-.87-2.16-1.55-3.41-2.03-1.25-.48-2.55-.71-3.89-.71-1.46,0-2.88,.25-4.24,.77-1.32,.51-2.53,1.21-3.6,2.13-1.07,.92-1.95,2.01-2.64,3.24-.48,.86-.85,1.76-1.13,2.69h22.75Z"/>
  <polygon class="cls-2" points="380.44 157.88 353.45 184.86 340.42 197.89 327.39 184.86 340.42 171.83 367.41 144.84 380.44 157.88"/>
  <rect class="cls-1" x="345.11" y="88.4" width="18.43" height="55.44" transform="translate(21.67 284.55) rotate(-45)"/>
  <polygon class="cls-2" points="272.87 104.28 322.61 154.02 309.58 167.05 246.81 104.28 340.42 10.67 403.19 73.44 390.16 86.47 340.42 36.73 272.87 104.28"/>
  <rect class="cls-3" x="372.53" y="134.32" width="18.43" height="18.43" transform="translate(10.32 311.98) rotate(-45)"/>
</svg>